<?xml version="1.0" encoding="UTF-8" standalone="no"?>
<svg
   xmlns:dc="http://purl.org/dc/elements/1.1/"
   xmlns:cc="http://creativecommons.org/ns#"
   xmlns:rdf="http://www.w3.org/1999/02/22-rdf-syntax-ns#"
   xmlns:svg="http://www.w3.org/2000/svg"
   xmlns="http://www.w3.org/2000/svg"
   viewBox="0 0 185.33333 66.666664"
   height="54"
   width="150"
   xml:space="preserve"
   id="svg2"
   version="1.1"><metadata
     id="metadata8"><rdf:RDF><cc:Work
         rdf:about=""><dc:format>image/svg+xml</dc:format><dc:type
           rdf:resource="http://purl.org/dc/dcmitype/StillImage" /></cc:Work></rdf:RDF></metadata><defs
     id="defs6"><clipPath
       id="clipPath18"
       clipPathUnits="userSpaceOnUse"><path
         id="path16"
         d="M 0,50 H 139 V 0 H 0 Z" /></clipPath></defs><g
     transform="matrix(1.3333333,0,0,-1.3333333,0,66.666667)"
     id="g10"><g
       id="g12"><g
         clip-path="url(#clipPath18)"
         id="g14"><g
           transform="translate(61.1318,23.1504)"
           id="g20"><path
             id="path22"
             style="fill:#0378ad;fill-opacity:1;fill-rule:nonzero;stroke:none"
             d="m 0,0 c -0.205,-0.066 -0.507,-0.166 -0.904,-0.297 -0.442,-0.132 -0.958,-0.281 -1.55,-0.446 -1.204,-0.308 -2.646,-0.479 -4.324,-0.511 -6.385,0.121 -9.511,4.155 -9.377,12.101 0,1.62 0.145,3.134 0.435,4.544 0.258,1.365 0.73,2.58 1.419,3.645 0.676,1.066 1.622,1.903 2.838,2.513 1.192,0.6 2.692,0.9 4.499,0.9 2.547,-0.023 4.405,-0.521 5.578,-1.496 1.161,-0.952 1.811,-2.132 1.95,-3.538 h -3.975 c -0.021,0.311 -0.091,0.66 -0.21,1.049 -0.129,0.39 -0.334,0.756 -0.613,1.1 -0.29,0.378 -0.679,0.695 -1.162,0.951 -0.485,0.222 -1.116,0.333 -1.891,0.333 -1.121,-0.022 -2.026,-0.328 -2.715,-0.916 -0.679,-0.59 -1.206,-1.362 -1.584,-2.318 -0.354,-0.933 -0.597,-1.922 -0.726,-2.967 -0.15,-1.044 -0.228,-2.022 -0.228,-2.933 -0.022,-0.978 0.044,-2.095 0.195,-3.351 0.108,-1.278 0.382,-2.528 0.824,-3.75 0.248,-0.6 0.534,-1.139 0.856,-1.617 0.334,-0.522 0.733,-0.988 1.196,-1.4 0.904,-0.833 2.138,-1.25 3.7,-1.25 1.465,0.022 2.692,0.26 3.684,0.717 0.97,0.411 1.665,0.783 2.085,1.116 z" /></g><g
           transform="translate(65.4238,41.5039)"
           id="g24"><path
             id="path26"
             style="fill:#0378ad;fill-opacity:1;fill-rule:nonzero;stroke:none"
             d="M 0,0 C 0,1.214 -0.162,2.032 -0.486,2.456 -0.864,2.89 -1.56,3.107 -2.576,3.107 V 3.779 L 3.301,4.627 V -7.389 h 0.064 c 0.162,0.376 0.382,0.803 0.662,1.279 0.268,0.497 0.624,0.972 1.065,1.426 0.462,0.476 1,0.874 1.613,1.195 0.625,0.321 1.34,0.481 2.146,0.481 0.947,0 1.699,-0.183 2.259,-0.549 0.548,-0.345 0.951,-0.799 1.209,-1.365 0.27,-0.565 0.447,-1.176 0.534,-1.83 0.042,-0.666 0.064,-1.314 0.064,-1.947 V -19.231 H 9.616 V -9.2 c 0.023,0.91 -0.075,1.777 -0.291,2.599 -0.128,0.389 -0.36,0.705 -0.694,0.95 -0.334,0.233 -0.808,0.35 -1.421,0.35 C 6.22,-5.334 5.337,-5.907 4.561,-7.018 3.742,-8.129 3.322,-9.495 3.301,-11.117 v -8.114 H 0 Z" /></g><g
           transform="translate(84.4678,33.6812)"
           id="g28"><path
             id="path30"
             style="fill:#0378ad;fill-opacity:1;fill-rule:nonzero;stroke:none"
             d="m 0,0 c 0,1.156 -0.162,1.961 -0.487,2.417 -0.379,0.411 -1.066,0.617 -2.062,0.617 v 0.673 l 5.85,1.108 V -11.409 H 0 Z" /></g><g
           transform="translate(93.7861,33.6982)"
           id="g32"><path
             id="path34"
             style="fill:#0378ad;fill-opacity:1;fill-rule:nonzero;stroke:none"
             d="M 0,0 C 0,1.157 -0.18,1.964 -0.536,2.421 -0.903,2.833 -1.61,3.039 -2.658,3.039 v 0.672 l 5.957,1.1 V 0.451 H 3.364 C 3.493,0.761 3.713,1.164 4.025,1.662 4.293,2.116 4.659,2.591 5.122,3.089 5.583,3.586 6.121,3.996 6.734,4.317 7.367,4.637 8.082,4.798 8.877,4.798 10.371,4.775 11.42,4.31 12.022,3.4 12.591,2.49 12.875,1.353 12.875,-0.012 V -11.426 H 9.576 v 8.831 c 0,0.711 -0.012,1.372 -0.032,1.983 C 9.521,-0.023 9.446,0.51 9.317,0.988 9.178,1.466 8.968,1.843 8.688,2.121 8.354,2.376 7.914,2.504 7.365,2.504 6.838,2.504 6.332,2.333 5.849,1.988 5.364,1.644 4.934,1.187 4.558,0.621 3.74,-0.545 3.321,-1.784 3.299,-3.095 v -8.331 H 0 Z" /></g><g
           transform="translate(119.4795,29.8315)"
           id="g36"><path
             id="path38"
             style="fill:#0378ad;fill-opacity:1;fill-rule:nonzero;stroke:none"
             d="m 0,0 c -0.312,0 -0.731,-0.011 -1.258,-0.033 -0.258,-0.023 -0.521,-0.072 -0.79,-0.15 -0.291,-0.067 -0.587,-0.166 -0.888,-0.299 -0.569,-0.232 -1.052,-0.57 -1.451,-1.013 -0.441,-0.477 -0.662,-1.125 -0.662,-1.944 0,-0.797 0.189,-1.435 0.566,-1.912 0.343,-0.497 0.816,-0.746 1.42,-0.746 0.966,0.021 1.724,0.431 2.273,1.228 0.527,0.743 0.79,1.707 0.79,2.892 z m 0,-5.549 c -0.128,-0.165 -0.305,-0.37 -0.529,-0.614 -0.238,-0.276 -0.522,-0.546 -0.853,-0.811 -0.332,-0.255 -0.729,-0.47 -1.189,-0.647 -0.461,-0.177 -1.02,-0.282 -1.672,-0.314 -1.299,0.032 -2.354,0.442 -3.168,1.228 -0.836,0.778 -1.254,1.674 -1.254,2.694 0.02,1.208 0.386,2.16 1.093,2.859 0.654,0.698 1.478,1.219 2.475,1.562 0.988,0.344 1.951,0.571 2.895,0.682 C -1.28,1.179 -0.546,1.223 0,1.223 V 2.971 C 0.022,4.103 -0.053,5.134 -0.225,6.067 -0.449,6.999 -1.066,7.477 -2.074,7.499 -3.104,7.477 -3.751,7.093 -4.02,6.35 -4.276,5.618 -4.396,4.841 -4.373,4.02 h -3.924 c 0.107,0.599 0.274,1.17 0.498,1.714 0.214,0.522 0.542,1.011 0.982,1.466 0.462,0.454 1.067,0.815 1.817,1.082 0.74,0.255 1.705,0.383 2.896,0.383 1.19,0 2.134,-0.14 2.832,-0.417 C 1.456,7.96 2.004,7.55 2.367,7.017 2.765,6.518 3.023,5.907 3.141,5.187 3.248,4.455 3.301,3.661 3.301,2.807 V -7.559 H 0 Z" /></g><g
           transform="translate(81.0615,16.8135)"
           id="g40"><path
             id="path42"
             style="fill:#0378ad;fill-opacity:1;fill-rule:nonzero;stroke:none"
             d="m 0,0 c -0.19,0.115 -0.51,0.248 -0.954,0.398 -0.443,0.148 -0.939,0.225 -1.485,0.236 -0.365,0 -0.67,-0.11 -0.914,-0.324 -0.265,-0.224 -0.399,-0.571 -0.399,-1.039 0,-0.26 0.068,-0.493 0.205,-0.693 0.129,-0.207 0.298,-0.391 0.507,-0.557 0.434,-0.331 0.937,-0.637 1.51,-0.922 0.293,-0.137 0.57,-0.29 0.832,-0.459 0.262,-0.17 0.493,-0.367 0.693,-0.592 0.207,-0.215 0.375,-0.465 0.504,-0.749 0.12,-0.29 0.181,-0.626 0.181,-1.011 -0.018,-0.985 -0.351,-1.692 -0.998,-2.124 -0.652,-0.435 -1.458,-0.653 -2.42,-0.653 -0.536,0.013 -1.022,0.071 -1.457,0.172 -0.456,0.095 -0.767,0.161 -0.93,0.198 v 1.138 c 0.24,-0.152 0.595,-0.321 1.066,-0.508 0.467,-0.217 0.98,-0.328 1.541,-0.338 0.457,-0.009 0.854,0.107 1.192,0.35 0.334,0.244 0.505,0.673 0.514,1.293 0,0.293 -0.059,0.552 -0.174,0.777 -0.129,0.215 -0.298,0.408 -0.506,0.577 -0.435,0.33 -0.945,0.635 -1.526,0.914 -0.277,0.161 -0.545,0.33 -0.807,0.508 -0.262,0.171 -0.499,0.359 -0.714,0.564 -0.461,0.423 -0.697,0.988 -0.706,1.699 0.027,1.608 1.05,2.421 3.068,2.44 C -1.688,1.286 -1.249,1.257 -0.858,1.206 -0.468,1.143 -0.183,1.089 0,1.043 Z" /></g><g
           transform="translate(86.4111,7.9395)"
           id="g44"><path
             id="path46"
             style="fill:#0378ad;fill-opacity:1;fill-rule:nonzero;stroke:none"
             d="m 0,0 c -0.184,-0.588 -0.44,-1.11 -0.773,-1.566 -0.173,-0.224 -0.394,-0.402 -0.66,-0.534 -0.253,-0.14 -0.571,-0.217 -0.952,-0.225 -0.363,0.008 -0.661,0.08 -0.896,0.211 -0.243,0.124 -0.434,0.278 -0.571,0.465 -0.274,0.4 -0.415,0.771 -0.424,1.113 h 1.561 c -0.01,-0.226 0.031,-0.449 0.12,-0.674 0.084,-0.234 0.284,-0.355 0.601,-0.365 0.302,0.01 0.539,0.153 0.714,0.434 0.164,0.256 0.291,0.521 0.38,0.791 L -0.72,0.132 -2.914,5.54 C -3.06,5.962 -3.225,6.276 -3.406,6.482 -3.495,6.589 -3.616,6.668 -3.772,6.724 -3.928,6.779 -4.126,6.807 -4.37,6.807 v 0.276 h 2.314 l 2.017,-5.176 1.963,5.176 h 0.778 z" /></g><g
           transform="translate(93.8887,13.8779)"
           id="g48"><path
             id="path50"
             style="fill:#0378ad;fill-opacity:1;fill-rule:nonzero;stroke:none"
             d="M 0,0 C -0.045,0.05 -0.117,0.107 -0.221,0.172 -0.328,0.245 -0.454,0.32 -0.6,0.398 -0.895,0.576 -1.236,0.67 -1.629,0.681 c -0.226,0 -0.434,-0.054 -0.626,-0.159 -0.21,-0.101 -0.318,-0.306 -0.327,-0.618 0,-0.151 0.044,-0.29 0.134,-0.419 0.092,-0.132 0.208,-0.256 0.346,-0.37 0.297,-0.216 0.639,-0.43 1.02,-0.645 0.392,-0.216 0.739,-0.478 1.041,-0.789 0.29,-0.327 0.437,-0.756 0.446,-1.291 -0.009,-0.683 -0.243,-1.174 -0.706,-1.477 -0.467,-0.31 -1.049,-0.467 -1.746,-0.467 -0.841,0.033 -1.422,0.117 -1.746,0.254 v 1.097 c 0.106,-0.065 0.228,-0.14 0.366,-0.227 0.129,-0.083 0.265,-0.163 0.407,-0.241 0.303,-0.174 0.644,-0.261 1.028,-0.261 0.435,0 0.744,0.1 0.926,0.296 0.165,0.174 0.248,0.389 0.248,0.647 0,0.177 -0.036,0.337 -0.109,0.473 -0.084,0.142 -0.2,0.271 -0.345,0.385 -0.298,0.215 -0.644,0.427 -1.035,0.633 -0.381,0.215 -0.724,0.472 -1.026,0.769 -0.307,0.293 -0.465,0.673 -0.474,1.14 0,0.527 0.18,0.975 0.541,1.341 0.364,0.358 0.944,0.542 1.739,0.55 C -1.166,1.294 -0.85,1.263 -0.574,1.212 -0.312,1.147 -0.12,1.097 0,1.06 Z" /></g><g
           transform="translate(99.4238,8.4404)"
           id="g52"><path
             id="path54"
             style="fill:#0378ad;fill-opacity:1;fill-rule:nonzero;stroke:none"
             d="m 0,0 c -0.298,-0.062 -0.603,-0.103 -0.911,-0.116 -0.329,0 -0.62,0.026 -0.873,0.076 -0.253,0.036 -0.471,0.116 -0.654,0.239 -0.18,0.12 -0.314,0.306 -0.398,0.557 -0.099,0.239 -0.147,0.554 -0.147,0.948 v 4.315 h -1.062 v 0.563 h 1.062 v 1.112 l 1.364,1.25 V 6.582 H 0.167 V 6.019 H -1.619 V 1.922 c -0.01,-0.486 0.048,-0.841 0.174,-1.065 0.084,-0.115 0.197,-0.2 0.338,-0.254 0.147,-0.065 0.348,-0.097 0.607,-0.097 0.169,0 0.335,0.018 0.5,0.055 z" /></g><g
           transform="translate(104.5518,13.0615)"
           id="g56"><path
             id="path58"
             style="fill:#0378ad;fill-opacity:1;fill-rule:nonzero;stroke:none"
             d="m 0,0 c 0,0.092 -0.005,0.227 -0.014,0.403 -0.008,0.179 -0.055,0.362 -0.139,0.548 -0.072,0.197 -0.191,0.358 -0.355,0.486 -0.175,0.131 -0.411,0.198 -0.709,0.198 -0.25,0 -0.455,-0.054 -0.616,-0.164 C -2.006,1.356 -2.145,1.211 -2.247,1.033 -2.448,0.65 -2.544,0.306 -2.535,0 Z M 1.236,-4.357 C 1.112,-4.417 0.882,-4.491 0.544,-4.581 0.206,-4.672 -0.203,-4.724 -0.683,-4.737 c -2.193,0.032 -3.309,1.253 -3.343,3.662 0.017,2.147 0.971,3.213 2.864,3.193 0.582,0 1.046,-0.089 1.392,-0.266 C 0.568,1.665 0.816,1.425 0.978,1.132 1.15,0.862 1.262,0.571 1.31,0.261 1.346,-0.037 1.362,-0.311 1.362,-0.562 h -3.897 c 0,-0.358 0.047,-0.731 0.14,-1.118 0.081,-0.396 0.211,-0.768 0.394,-1.119 0.192,-0.349 0.453,-0.633 0.782,-0.848 0.307,-0.226 0.697,-0.339 1.174,-0.339 0.602,0.009 1.028,0.09 1.281,0.242 z" /></g><g
           transform="translate(107.542,13.1953)"
           id="g60"><path
             id="path62"
             style="fill:#0378ad;fill-opacity:1;fill-rule:nonzero;stroke:none"
             d="m 0,0 c 0,0.478 -0.069,0.812 -0.208,0.999 -0.155,0.17 -0.438,0.255 -0.847,0.255 V 1.531 L 1.393,1.983 V 0.312 h 0.026 c 0.065,0.133 0.159,0.292 0.282,0.481 0.117,0.186 0.255,0.369 0.421,0.548 0.169,0.187 0.376,0.34 0.618,0.46 0.247,0.122 0.526,0.183 0.834,0.183 0.339,0 0.615,-0.047 0.83,-0.144 C 4.62,1.741 4.791,1.61 4.914,1.45 5.148,1.104 5.279,0.757 5.306,0.409 H 5.333 C 5.421,0.552 5.519,0.715 5.629,0.903 5.743,1.081 5.876,1.249 6.027,1.41 6.196,1.578 6.398,1.718 6.632,1.828 6.855,1.932 7.122,1.984 7.43,1.984 7.882,1.977 8.23,1.891 8.474,1.731 8.726,1.552 8.903,1.328 9.009,1.058 9.118,0.783 9.184,0.497 9.2,0.199 9.215,-0.104 9.222,-0.386 9.222,-0.646 V -4.713 H 7.856 v 3.845 c 0,0.223 -0.003,0.448 -0.013,0.673 C 7.833,0.021 7.798,0.223 7.737,0.41 7.682,0.599 7.59,0.749 7.466,0.864 7.325,0.979 7.137,1.036 6.899,1.036 6.629,1.036 6.394,0.956 6.193,0.795 5.993,0.636 5.826,0.428 5.69,0.176 5.425,-0.359 5.293,-0.905 5.293,-1.46 V -4.713 H 3.929 v 3.645 c 0,0.294 -0.004,0.566 -0.014,0.818 C 3.905,-0.007 3.873,0.213 3.816,0.41 3.761,0.607 3.67,0.763 3.544,0.878 3.398,0.983 3.208,1.036 2.969,1.036 2.73,1.036 2.515,0.965 2.325,0.823 2.124,0.681 1.951,0.492 1.806,0.26 1.511,-0.223 1.365,-0.733 1.365,-1.273 v -3.44 H 0 Z" /></g><g
           transform="translate(122.2676,13.8779)"
           id="g64"><path
             id="path66"
             style="fill:#0378ad;fill-opacity:1;fill-rule:nonzero;stroke:none"
             d="m 0,0 c -0.045,0.05 -0.119,0.107 -0.221,0.172 -0.107,0.073 -0.234,0.148 -0.38,0.226 -0.295,0.178 -0.636,0.272 -1.028,0.283 -0.225,0 -0.436,-0.054 -0.627,-0.159 -0.209,-0.101 -0.317,-0.306 -0.326,-0.618 0,-0.151 0.044,-0.29 0.133,-0.419 0.094,-0.132 0.208,-0.256 0.346,-0.37 0.298,-0.216 0.638,-0.43 1.021,-0.645 0.392,-0.216 0.738,-0.478 1.04,-0.789 0.289,-0.327 0.438,-0.756 0.447,-1.291 -0.009,-0.683 -0.244,-1.174 -0.707,-1.477 -0.466,-0.31 -1.049,-0.467 -1.746,-0.467 -0.84,0.033 -1.422,0.117 -1.746,0.254 v 1.097 c 0.106,-0.065 0.229,-0.14 0.366,-0.227 0.13,-0.083 0.265,-0.163 0.408,-0.241 0.302,-0.174 0.644,-0.261 1.027,-0.261 0.434,0 0.744,0.1 0.927,0.296 0.165,0.174 0.246,0.389 0.246,0.647 0,0.177 -0.035,0.337 -0.107,0.473 -0.085,0.142 -0.2,0.271 -0.346,0.385 -0.297,0.215 -0.643,0.427 -1.035,0.633 -0.38,0.215 -0.724,0.472 -1.026,0.769 -0.307,0.293 -0.465,0.673 -0.474,1.14 0,0.527 0.181,0.975 0.54,1.341 0.365,0.358 0.946,0.542 1.741,0.55 0.36,-0.008 0.677,-0.039 0.953,-0.09 C -0.312,1.147 -0.121,1.097 0,1.06 Z" /></g><g
           transform="translate(21.709,33.3398)"
           id="g68"><path
             id="path70"
             style="fill:#f16623;fill-opacity:1;fill-rule:nonzero;stroke:none"
             d="m 0,0 h -4.433 v 2.958 c 0,0.859 -0.046,1.396 -0.14,1.609 -0.094,0.214 -0.302,0.32 -0.624,0.32 -0.363,0 -0.593,-0.13 -0.691,-0.389 -0.097,-0.259 -0.147,-0.82 -0.147,-1.681 v -7.903 c 0,-0.827 0.05,-1.367 0.147,-1.619 0.098,-0.252 0.318,-0.378 0.659,-0.378 0.329,0 0.544,0.126 0.646,0.378 0.101,0.253 0.15,0.846 0.15,1.779 V -2.79 H 0 v -0.663 c 0,-1.762 -0.124,-3.012 -0.374,-3.749 -0.248,-0.737 -0.798,-1.384 -1.65,-1.938 -0.852,-0.555 -1.904,-0.832 -3.15,-0.832 -1.299,0 -2.367,0.235 -3.211,0.705 -0.841,0.47 -1.397,1.12 -1.671,1.951 -0.274,0.831 -0.411,2.082 -0.411,3.751 v 4.976 c 0,1.227 0.042,2.148 0.126,2.761 0.084,0.614 0.337,1.205 0.752,1.773 0.418,0.568 0.997,1.015 1.736,1.341 0.74,0.326 1.591,0.49 2.553,0.49 1.303,0 2.379,-0.253 3.227,-0.757 C -1.225,6.514 -0.666,5.886 -0.398,5.133 -0.134,4.38 0,3.208 0,1.618 Z" /></g><g
           transform="translate(32.6846,35.6152)"
           id="g72"><path
             id="path74"
             style="fill:#f16623;fill-opacity:1;fill-rule:nonzero;stroke:none"
             d="m 0,0 h -4.115 v 1.254 c 0,0.585 -0.052,0.957 -0.156,1.118 -0.106,0.159 -0.279,0.24 -0.524,0.24 -0.265,0 -0.465,-0.109 -0.601,-0.326 -0.136,-0.217 -0.203,-0.546 -0.203,-0.988 0,-0.567 0.077,-0.994 0.232,-1.28 0.149,-0.288 0.567,-0.635 1.252,-1.042 1.971,-1.173 3.211,-2.134 3.723,-2.884 0.512,-0.75 0.768,-1.96 0.768,-3.628 0,-1.213 -0.142,-2.107 -0.427,-2.682 -0.284,-0.575 -0.833,-1.057 -1.648,-1.446 -0.814,-0.388 -1.761,-0.583 -2.842,-0.583 -1.187,0 -2.198,0.224 -3.037,0.672 -0.839,0.448 -1.388,1.019 -1.648,1.712 -0.26,0.694 -0.39,1.678 -0.39,2.952 v 1.114 H -5.5 v -2.064 c 0,-0.636 0.057,-1.044 0.173,-1.225 0.116,-0.183 0.322,-0.273 0.616,-0.273 0.294,0 0.514,0.115 0.657,0.346 0.144,0.232 0.216,0.575 0.216,1.031 0,1.001 -0.138,1.656 -0.411,1.965 -0.281,0.308 -0.974,0.823 -2.075,1.546 -1.1,0.731 -1.83,1.261 -2.189,1.59 -0.358,0.33 -0.654,0.785 -0.888,1.367 -0.236,0.581 -0.353,1.325 -0.353,2.23 0,1.304 0.166,2.257 0.5,2.86 0.334,0.602 0.87,1.074 1.614,1.414 0.745,0.341 1.642,0.51 2.694,0.51 1.151,0 2.132,-0.185 2.942,-0.556 0.81,-0.371 1.346,-0.839 1.608,-1.401 C -0.13,2.979 0,2.022 0,0.671 Z" /></g><g
           transform="translate(86.1904,44.7349)"
           id="g76"><path
             id="path78"
             style="fill:#f16623;fill-opacity:1;fill-rule:nonzero;stroke:none"
             d="m 0,0 c -0.27,0 -0.494,-0.091 -0.679,-0.271 -0.184,-0.18 -0.285,-0.421 -0.305,-0.723 H 0.948 C 0.923,-0.703 0.849,-0.485 0.728,-0.339 0.539,-0.113 0.298,0 0,0 m 1.564,-1.476 h -2.581 c 0.023,-0.38 0.129,-0.671 0.324,-0.874 0.194,-0.201 0.433,-0.303 0.723,-0.303 0.215,0 0.398,0.057 0.55,0.17 0.152,0.113 0.274,0.294 0.362,0.541 L 1.549,-2.017 C 1.452,-2.372 1.276,-2.646 1.017,-2.841 0.759,-3.037 0.428,-3.135 0.027,-3.135 c -0.506,0 -0.907,0.156 -1.204,0.468 -0.297,0.312 -0.445,0.749 -0.445,1.312 0,0.581 0.15,1.033 0.45,1.355 0.299,0.321 0.688,0.482 1.166,0.482 0.462,0 0.839,-0.158 1.134,-0.472 0.293,-0.316 0.44,-0.759 0.44,-1.33 0,-0.035 -0.003,-0.087 -0.004,-0.156 m -1.605,2.68 c -1.419,0 -2.569,-1.15 -2.569,-2.569 0,-1.419 1.15,-2.57 2.569,-2.57 1.42,0 2.57,1.151 2.57,2.57 0,1.419 -1.15,2.569 -2.57,2.569" /></g><g
           transform="translate(27.6211,18.1865)"
           id="g80"><path
             id="path82"
             style="fill:#f06826;fill-opacity:1;fill-rule:nonzero;stroke:none"
             d="m 0,0 -11.654,0.015 -8.231,8.262 v 11.655 l 8.231,8.214 11.621,0.017 L 8.215,19.932 8.231,8.263 Z M 11.852,21.396 1.503,31.724 -13.079,31.704 -23.407,21.396 V 6.774 L -13.079,-3.594 1.543,-3.613 11.872,6.754 Z" /></g><g
           transform="translate(0,10.6953)"
           id="g84"><path
             id="path86"
             style="fill:#0378ad;fill-opacity:1;fill-rule:nonzero;stroke:none"
             d="M 0,0 H 69.487 V -7.222 H 138.5 l -0.02,-1.287 -70.239,0.021 v 7.241 L 0,-1.227 Z" /></g><g
           transform="translate(76.2148,2.1367)"
           id="g88"><path
             id="path90"
             style="fill:#f06826;fill-opacity:1;fill-rule:nonzero;stroke:none"
             d="M 0,0 0.02,-2.137 H 47.387 V -0.02 Z" /></g></g></g></g></svg>