<?xml version="1.0" standalone="no"?>
<!DOCTYPE svg PUBLIC "-//W3C//DTD SVG 20010904//EN"
 "http://www.w3.org/TR/2001/REC-SVG-20010904/DTD/svg10.dtd">
<svg version="1.0" xmlns="http://www.w3.org/2000/svg"
 width="213.000000pt" height="196.000000pt" viewBox="0 0 213.000000 196.000000"
 preserveAspectRatio="xMidYMid meet">

<g transform="translate(0.000000,196.000000) scale(0.100000,-0.100000)"
fill="#000000" stroke="none">
<path d="M716 1922 c-2 -4 12 -6 32 -4 56 5 62 10 15 11 -23 1 -44 -3 -47 -7z"/>
<path d="M960 1920 c0 -6 -35 -11 -82 -12 -46 -1 -65 -3 -43 -6 56 -5 205 8
205 19 0 5 -18 9 -40 9 -22 0 -40 -4 -40 -10z"/>
<path d="M1138 1923 c12 -2 32 -2 45 0 12 2 2 4 -23 4 -25 0 -35 -2 -22 -4z"/>
<path d="M638 1898 c-13 -13 -17 -18 -8 -12 8 6 29 16 45 22 25 9 26 11 8 11
-12 1 -32 -9 -45 -21z"/>
<path d="M1318 1913 c23 -2 61 -2 85 0 23 2 4 4 -43 4 -47 0 -66 -2 -42 -4z"/>
<path d="M1455 1911 c-6 -6 -30 -11 -55 -14 l-45 -4 47 -1 c41 -2 46 -4 41
-22 -4 -16 -2 -19 11 -14 10 4 15 13 12 21 -5 11 0 13 17 8 l22 -6 -23 14
c-12 7 -19 16 -16 20 4 4 5 7 3 7 -3 0 -9 -4 -14 -9z"/>
<path d="M665 1890 c-4 -6 2 -9 14 -7 29 4 39 17 13 17 -11 0 -24 -5 -27 -10z"/>
<path d="M818 1883 c12 -2 32 -2 45 0 12 2 2 4 -23 4 -25 0 -35 -2 -22 -4z"/>
<path d="M1078 1883 c23 -2 61 -2 85 0 23 2 4 4 -43 4 -47 0 -66 -2 -42 -4z"/>
<path d="M582 1843 c2 -10 10 -17 17 -15 9 2 11 -3 7 -15 -4 -9 -4 -14 0 -11
4 4 16 3 26 -3 16 -9 19 -18 15 -42 -3 -18 -3 -27 -1 -20 3 7 11 10 18 7 15
-6 40 21 32 35 -3 5 0 12 6 15 7 3 2 3 -11 0 -31 -8 -75 15 -61 31 8 9 3 12
-17 9 -27 -2 -27 -2 -9 12 19 14 19 14 -3 14 -16 0 -21 -5 -19 -17z m98 -73
c0 -5 -4 -10 -10 -10 -5 0 -10 5 -10 10 0 6 5 10 10 10 6 0 10 -4 10 -10z"/>
<path d="M1516 1825 c5 -12 10 -13 20 -4 11 9 14 9 14 0 0 -6 -7 -14 -16 -18
-13 -5 -13 -7 -2 -14 21 -14 31 -10 24 7 -5 12 -2 15 11 10 15 -6 15 -4 -2 14
-22 24 -57 28 -49 5z"/>
<path d="M532 1797 c-18 -18 -32 -40 -32 -49 0 -9 -6 -18 -12 -21 -7 -2 5 -3
27 -2 40 1 40 2 40 41 0 21 4 45 8 52 14 21 2 13 -31 -21z m9 -16 c-9 -6 -10
-11 -2 -15 16 -10 13 -35 -4 -32 -25 4 -28 15 -11 42 10 14 20 23 24 19 4 -3
0 -10 -7 -14z"/>
<path d="M1430 1800 c-8 -6 -28 -7 -45 -4 -24 5 -27 3 -18 -6 6 -7 9 -19 6
-28 -4 -9 -2 -13 4 -9 6 4 13 0 17 -8 6 -18 32 -20 42 -3 4 6 3 9 -2 5 -11 -6
-50 20 -42 29 4 3 16 0 28 -6 18 -10 21 -9 15 1 -5 7 -1 17 10 26 21 15 8 18
-15 3z"/>
<path d="M730 1791 c13 -10 8 -15 -12 -12 -4 0 -5 -6 -2 -14 4 -8 1 -15 -5
-15 -5 0 -15 -9 -21 -21 -9 -16 -1 -13 36 13 47 33 66 58 45 58 -6 0 -11 -7
-11 -15 0 -8 -4 -15 -10 -15 -5 0 -9 5 -7 11 1 6 -5 14 -13 16 -13 4 -13 3 0
-6z"/>
<path d="M785 1770 c-3 -5 -1 -10 4 -10 6 0 11 5 11 10 0 6 -2 10 -4 10 -3 0
-8 -4 -11 -10z"/>
<path d="M1580 1754 c0 -14 21 -42 35 -48 9 -3 23 0 31 8 12 13 11 15 -6 21
-11 3 -20 11 -20 16 0 5 -9 9 -20 9 -11 0 -20 -3 -20 -6z m40 -24 c0 -5 -4
-10 -10 -10 -5 0 -10 5 -10 10 0 6 5 10 10 10 6 0 10 -4 10 -10z"/>
<path d="M1520 1735 c0 -8 7 -15 16 -15 14 0 14 3 4 15 -7 8 -14 15 -16 15 -2
0 -4 -7 -4 -15z"/>
<path d="M655 1720 c-4 -6 -11 -8 -16 -5 -5 4 -9 1 -9 -4 0 -6 -5 -11 -11 -11
-5 0 -8 4 -5 9 3 5 -5 8 -19 7 -14 0 -25 -7 -25 -14 0 -7 5 -10 10 -7 6 4 17
2 25 -5 10 -9 20 -7 39 5 14 10 26 21 26 26 0 12 -7 11 -15 -1z"/>
<path d="M1445 1709 c-4 -6 -5 -12 -2 -15 2 -3 7 2 10 11 7 17 1 20 -8 4z"/>
<path d="M1473 1708 c-14 -17 -12 -47 1 -45 6 1 10 -2 10 -8 -2 -10 32 -47 51
-55 6 -3 9 -7 8 -10 -3 -9 36 -9 42 0 2 4 -3 7 -13 6 -10 0 -16 6 -16 16 1 10
-6 20 -16 23 -9 3 -22 15 -29 28 -8 15 -10 16 -6 3 5 -16 3 -17 -10 -6 -12 10
-13 16 -4 26 6 8 15 11 20 8 5 -3 9 -1 9 4 0 6 -7 13 -16 16 -21 8 -20 8 -31
-6z m22 -8 c-3 -5 -11 -10 -16 -10 -6 0 -7 5 -4 10 3 6 11 10 16 10 6 0 7 -4
4 -10z m40 -78 c-3 -3 -11 0 -18 7 -9 10 -8 11 6 5 10 -3 15 -9 12 -12z"/>
<path d="M452 1703 c-27 -5 -40 -29 -23 -46 13 -13 43 -19 35 -6 -3 5 -9 7
-14 4 -14 -9 -23 16 -10 28 9 9 15 8 25 -6 12 -17 13 -16 11 7 0 15 -1 25 -1
25 0 -1 -10 -4 -23 -6z"/>
<path d="M626 1665 c-32 -30 -30 -29 -52 -7 -17 16 -18 16 -11 -1 4 -10 7 -22
7 -26 0 -18 38 -3 63 26 34 39 31 43 -7 8z"/>
<path d="M580 1670 c0 -5 4 -10 9 -10 6 0 13 5 16 10 3 6 -1 10 -9 10 -9 0
-16 -4 -16 -10z"/>
<path d="M1660 1670 c0 -13 37 -50 50 -50 11 0 9 28 -3 48 -10 14 -47 16 -47
2z m40 -20 c0 -5 -4 -10 -10 -10 -5 0 -10 5 -10 10 0 6 5 10 10 10 6 0 10 -4
10 -10z"/>
<path d="M384 1648 l-19 -23 23 19 c21 18 27 26 19 26 -2 0 -12 -10 -23 -22z"/>
<path d="M1600 1655 c0 -8 7 -15 16 -15 14 0 14 3 4 15 -7 8 -14 15 -16 15 -2
0 -4 -7 -4 -15z"/>
<path d="M487 1625 c3 -8 9 -12 14 -9 12 7 11 11 -5 17 -10 4 -13 1 -9 -8z"/>
<path d="M529 1633 c-1 -5 -1 -12 0 -16 1 -5 -8 -11 -19 -14 -11 -3 -20 -8
-20 -12 0 -3 -10 -22 -22 -41 -13 -19 -23 -44 -23 -54 0 -11 -6 -21 -14 -24
-9 -3 -11 0 -6 8 5 9 4 11 -3 6 -7 -4 -12 -3 -12 3 0 5 5 13 10 16 8 5 7 11
-1 21 -9 11 -7 14 9 14 12 0 23 4 27 9 3 6 -7 9 -22 8 -26 -2 -28 -6 -29 -49
-2 -61 15 -67 60 -22 18 18 31 34 27 34 -4 0 -12 -5 -19 -12 -6 -6 -15 -8 -19
-4 -11 11 39 46 52 37 6 -5 22 6 38 26 34 39 27 45 -8 7 -23 -25 -45 -25 -45
-1 0 8 3 8 8 2 4 -6 18 1 34 18 15 15 22 27 17 27 -6 0 -7 5 -4 10 3 6 1 10
-4 10 -6 0 -12 -3 -12 -7z"/>
<path d="M1572 1629 c2 -7 10 -15 17 -17 8 -3 12 1 9 9 -2 7 -10 15 -17 17 -8
3 -12 -1 -9 -9z"/>
<path d="M374 1623 c-12 -2 -30 -14 -40 -26 -10 -12 -15 -19 -10 -15 5 4 16 2
24 -4 17 -15 44 -20 36 -7 -3 5 -1 9 4 9 6 0 9 11 8 25 0 14 -1 24 -1 24 0 -1
-10 -4 -21 -6z m10 -22 c3 -5 -1 -14 -8 -20 -16 -13 -32 2 -21 19 8 12 22 13
29 1z"/>
<path d="M1740 1595 c0 -2 5 -16 12 -30 12 -28 28 -33 28 -10 0 8 5 15 11 15
6 0 9 6 7 12 -4 11 -58 23 -58 13z m40 -20 c-7 -9 -15 -13 -17 -11 -7 7 7 26
19 26 6 0 6 -6 -2 -15z"/>
<path d="M1680 1575 c0 -8 7 -15 16 -15 14 0 14 3 4 15 -7 8 -14 15 -16 15 -2
0 -4 -7 -4 -15z"/>
<path d="M1604 1549 c-3 -6 -3 -13 0 -16 3 -4 6 0 7 8 0 8 5 3 11 -11 6 -14
10 -29 9 -35 -1 -5 10 3 24 18 14 16 23 33 19 38 -8 13 -25 0 -22 -16 2 -8 -1
-13 -7 -12 -5 1 -9 7 -9 14 2 15 -24 25 -32 12z"/>
<path d="M291 1537 c-13 -7 -27 -21 -31 -32 -7 -17 -3 -20 26 -21 26 -1 32 2
31 17 -1 12 -5 15 -11 9 -14 -14 -39 -13 -34 2 2 6 12 12 22 14 20 3 32 12 25
19 -3 2 -15 -1 -28 -8z"/>
<path d="M1843 1506 c-13 -6 -23 -14 -23 -18 0 -13 17 -9 30 7 7 8 17 12 23 8
6 -4 1 -10 -11 -14 -12 -5 -22 -13 -22 -19 0 -15 16 -12 30 5 7 8 17 12 24 8
6 -3 2 3 -8 15 -11 12 -20 21 -20 21 -1 -1 -11 -6 -23 -13z"/>
<path d="M1655 1490 c-6 -10 -5 -11 18 -14 6 -1 11 -8 9 -15 -1 -7 2 -9 8 -6
7 4 10 0 8 -10 -2 -12 5 -19 22 -21 14 -1 19 0 13 2 -7 3 -13 11 -13 18 0 11
-44 56 -54 56 -3 0 -8 -4 -11 -10z"/>
<path d="M340 1473 c5 -2 8 -9 4 -14 -3 -5 0 -9 6 -9 15 0 7 23 -8 26 -7 1 -8
0 -2 -3z"/>
<path d="M1720 1471 c0 -4 5 -12 12 -19 17 -17 27 -15 24 5 -3 16 -36 29 -36
14z"/>
<path d="M211 1457 c-13 -6 -27 -21 -31 -32 -6 -17 -3 -20 24 -21 30 0 32 2
32 33 -1 18 -1 33 -1 33 0 0 -11 -6 -24 -13z m9 -28 c11 -19 10 -20 -10 -9
-11 6 -18 15 -15 21 9 13 13 11 25 -12z"/>
<path d="M1335 1460 c-21 -5 -24 -8 -9 -9 47 -3 53 -52 5 -50 -14 0 -19 3 -11
6 8 2 22 7 30 9 13 5 13 6 0 14 -24 15 -60 12 -54 -4 4 -11 -1 -14 -23 -12
-15 2 -26 7 -23 12 2 5 10 8 17 6 7 -2 13 2 13 8 0 5 -4 10 -9 10 -11 0 -101
-50 -101 -56 0 -3 4 -3 9 1 16 9 25 -36 10 -46 -10 -6 -11 -11 -3 -16 6 -5 8
-16 5 -27 -6 -14 -9 -11 -18 18 -9 31 -9 38 5 46 10 5 12 10 5 10 -16 0 -44
-30 -38 -40 3 -5 1 -10 -4 -12 -6 -1 -13 -40 -16 -85 -7 -78 -6 -82 16 -94 25
-14 30 -15 52 -18 6 -1 -3 -9 -20 -17 -18 -9 -33 -20 -33 -25 0 -12 17 -11 25
1 11 17 34 11 32 -8 -1 -18 -27 -27 -27 -10 0 5 -5 6 -10 3 -15 -9 -2 -25 21
-25 10 0 19 -5 19 -11 0 -6 -7 -8 -17 -4 -15 5 -15 3 2 -12 34 -32 86 -65 91
-60 3 3 -7 13 -23 22 -15 9 -19 13 -8 9 31 -11 78 -10 94 1 11 7 13 7 7 -2 -4
-7 -2 -13 3 -13 6 0 11 -5 11 -11 0 -8 -5 -8 -15 1 -10 9 -15 9 -15 1 0 -6 -5
-11 -11 -11 -5 0 -8 4 -5 8 3 5 0 9 -7 9 -7 0 -13 -8 -13 -18 0 -10 2 -16 4
-14 2 2 12 -5 23 -16 11 -11 25 -17 31 -13 6 4 8 3 5 -3 -9 -14 40 -46 59 -39
8 3 14 1 14 -4 0 -6 -5 -10 -11 -10 -5 0 -7 -5 -4 -10 4 -6 10 -8 14 -5 5 2 8
-34 9 -80 0 -52 -4 -85 -10 -85 -6 0 -4 -8 3 -17 12 -15 12 -16 -4 -10 -10 4
-29 7 -43 7 -17 0 -25 7 -30 25 -7 27 -20 33 -27 13 -2 -7 -2 0 1 16 3 19 1
26 -7 22 -14 -9 -14 7 0 21 6 6 10 30 7 52 -2 22 1 43 7 45 5 2 0 3 -12 3 -12
-1 -20 -4 -18 -7 2 -4 -2 -7 -10 -7 -8 0 -12 4 -9 9 3 4 -20 8 -50 8 -33 0
-56 -4 -56 -11 0 -5 3 -8 8 -6 4 3 7 -16 7 -42 0 -26 -4 -48 -10 -48 -5 0 -9
19 -7 41 3 47 -9 72 -32 63 -12 -5 -16 -20 -16 -57 0 -65 19 -57 21 8 2 33 3
38 6 18 7 -45 -7 -123 -18 -105 -6 10 -9 11 -9 1 0 -7 10 -16 22 -21 18 -6 19
-9 5 -14 -10 -4 -17 -12 -17 -18 0 -9 4 -9 14 0 10 8 16 9 21 1 3 -6 12 -7 18
-4 8 5 8 3 0 -7 -16 -16 -17 -33 -1 -23 7 4 8 3 4 -4 -4 -6 -14 -8 -22 -5 -14
5 -15 3 -5 -15 15 -29 29 -36 46 -22 11 9 12 7 8 -9 -3 -13 2 -23 17 -31 12
-6 24 -9 27 -7 2 3 16 -1 30 -8 22 -12 28 -11 40 1 19 18 24 18 17 -1 -5 -13
5 -15 60 -14 56 1 64 4 55 16 -10 11 -8 12 14 4 30 -12 60 -4 50 12 -4 6 0 8
11 4 11 -5 15 -3 10 5 -5 7 -2 9 8 5 22 -8 51 15 55 44 2 16 0 20 -6 11 -5 -9
-8 -4 -7 16 1 22 5 28 19 24 12 -3 16 -11 12 -26 -5 -16 -4 -17 3 -6 13 21 10
49 -11 88 -10 18 -15 38 -11 44 4 7 3 8 -4 4 -7 -4 -12 -3 -12 3 0 5 5 13 11
16 10 7 8 37 -6 95 -5 25 -5 25 5 2 5 -13 14 -21 19 -18 5 3 7 -27 5 -68 -3
-56 0 -77 11 -86 12 -10 15 -9 15 8 0 11 -6 23 -12 26 -9 4 -10 8 -2 11 7 4
10 31 8 70 -3 72 -11 95 -25 74 -6 -10 -9 -10 -9 -2 0 6 5 15 11 19 12 7 -6
24 -26 24 -5 0 -3 -5 5 -10 13 -8 13 -10 -1 -10 -9 0 -19 7 -23 15 -3 8 0 15
7 15 8 0 7 4 -3 10 -9 6 -17 5 -21 -2 -4 -7 -9 -7 -13 1 -4 6 -3 11 3 11 6 0
8 8 4 18 -6 15 -4 15 18 -3 13 -11 8 -3 -10 18 -19 20 -42 37 -51 37 -8 0 -21
9 -28 20 -7 11 -19 20 -27 20 -8 0 -15 5 -15 12 0 6 -3 8 -7 5 -3 -4 -12 -2
-19 3 -6 6 -18 9 -25 8 -9 -2 -13 4 -11 16 3 14 -1 17 -12 13 -9 -4 -16 -1
-16 6 0 7 -9 23 -20 37 -11 14 -20 32 -20 40 0 13 1 13 10 0 7 -12 10 -8 10
14 0 16 -8 35 -17 42 -17 13 -17 14 0 8 21 -8 22 5 2 20 -12 9 -2 11 43 12 56
1 58 0 54 -22 -2 -13 -1 -32 3 -41 4 -10 8 -29 8 -43 l0 -25 87 5 c49 3 86 1
83 -3 -3 -5 3 -7 13 -5 27 5 30 37 5 54 -12 9 -21 20 -21 26 0 7 5 7 14 -1 10
-9 15 -8 20 4 3 8 3 22 0 30 -5 12 -9 13 -20 4 -12 -10 -13 -9 -8 5 3 9 11 16
16 16 7 0 6 5 -1 13 -6 8 -7 18 -3 22 4 5 1 4 -7 0 -11 -6 -13 -4 -8 7 4 12 1
14 -13 11 -20 -5 -38 16 -21 26 11 7 -41 43 -56 39 -4 -1 -19 4 -32 11 -16 9
-40 11 -73 7 -34 -5 -48 -4 -43 4 3 5 5 9 3 9 -2 -1 -16 -5 -33 -9z m159 -37
c5 -11 10 -12 19 -5 8 7 17 7 29 -2 13 -10 6 -12 -43 -12 -34 0 -54 3 -47 8
10 6 10 8 -1 8 -11 0 -11 3 -1 14 13 17 36 11 44 -11z m48 -68 c0 -5 -5 -11
-11 -13 -6 -2 -11 4 -11 13 0 9 5 15 11 13 6 -2 11 -8 11 -13z m68 -25 c0 -5
-9 -10 -21 -10 -11 0 -17 5 -14 10 3 6 13 10 21 10 8 0 14 -4 14 -10z m-451
-57 c0 10 5 15 11 12 6 -4 5 -13 -2 -25 -16 -24 -28 -7 -27 35 2 30 2 30 9 -5
4 -19 8 -27 9 -17z m136 5 c-3 -18 -3 -28 1 -21 3 7 12 9 20 6 12 -4 12 -7 -3
-18 -15 -11 -15 -17 -5 -39 14 -32 15 -36 3 -36 -5 0 -12 8 -16 18 -11 26 -14
122 -4 122 5 0 6 -15 4 -32z m105 -191 c8 -3 4 -5 -11 -4 -17 1 -26 7 -26 20
-2 17 0 17 10 4 7 -8 19 -17 27 -20z m75 -27 c-4 -6 -11 -7 -17 -4 -7 4 -8 2
-4 -4 4 -7 2 -12 -3 -12 -6 0 -11 7 -11 15 0 8 9 15 21 15 11 0 17 -5 14 -10z
m23 -32 c15 -15 16 -28 2 -28 -5 0 -9 6 -7 13 1 6 -6 11 -15 11 -10 -1 -15 2
-12 7 7 12 18 11 32 -3z m46 -14 c10 -26 7 -34 -10 -27 -13 5 -13 7 -2 14 10
7 10 9 1 9 -7 0 -13 5 -13 10 0 16 17 12 24 -6z m-77 -10 c-3 -3 -12 -4 -19
-1 -8 3 -5 6 6 6 11 1 17 -2 13 -5z m-107 -66 c0 -3 -9 -6 -20 -5 -11 1 -20 5
-20 9 0 3 9 6 20 5 11 -1 20 -5 20 -9z m180 -8 c0 -5 -4 -10 -10 -10 -5 0 -10
5 -10 10 0 6 5 10 10 10 6 0 10 -4 10 -10z m-135 -20 c5 -8 11 -7 21 1 12 10
13 9 8 -5 -7 -18 -20 -21 -29 -5 -4 6 -14 8 -22 5 -8 -3 -11 -1 -8 4 8 13 22
13 30 0z m-215 -180 c0 -5 -7 -10 -15 -10 -8 0 -15 5 -15 10 0 6 7 10 15 10 8
0 15 -4 15 -10z m97 -42 c-3 -7 -5 -2 -5 12 0 14 2 19 5 13 2 -7 2 -19 0 -25z
m-95 0 c-7 -7 -12 -8 -12 -2 0 14 12 26 19 19 2 -3 -1 -11 -7 -17z m432 7 c3
-8 1 -15 -4 -15 -6 0 -10 7 -10 15 0 8 2 15 4 15 2 0 6 -7 10 -15z m-248 -52
c-4 -4 10 -12 31 -18 l38 -12 -41 1 c-31 0 -40 5 -41 18 -1 10 3 18 9 18 6 0
8 -3 4 -7z m54 -3 c8 -5 11 -10 5 -10 -5 0 -17 5 -25 10 -8 5 -10 10 -5 10 6
0 17 -5 25 -10z m-150 -44 c0 -11 -19 -15 -25 -6 -3 5 1 10 9 10 9 0 16 -2 16
-4z m67 -2 c-3 -3 -12 -4 -19 -1 -8 3 -5 6 6 6 11 1 17 -2 13 -5z m253 -8 c-4
-4 -16 -4 -26 2 -16 9 -14 10 8 9 15 -1 23 -6 18 -11z m-310 -11 c-12 -15 -63
-17 -53 -2 2 4 13 5 23 2 10 -3 21 -1 25 5 3 5 9 10 12 10 3 0 0 -7 -7 -15z
m238 3 c-3 -7 -15 -14 -29 -15 -22 -2 -23 -2 -4 7 16 8 12 9 -17 6 -21 -3 -38
-1 -38 5 0 5 21 9 46 9 32 0 44 -4 42 -12z m-191 -14 c-3 -3 -12 -4 -19 -1 -8
3 -5 6 6 6 11 1 17 -2 13 -5z m-20 -20 c-3 -3 -12 -4 -19 -1 -8 3 -5 6 6 6 11
1 17 -2 13 -5z"/>
<path d="M660 1445 c-14 -7 -29 -11 -34 -8 -5 4 -6 0 -1 -7 6 -10 4 -12 -7 -7
-21 7 -92 -59 -84 -79 3 -9 1 -12 -4 -9 -6 3 -10 -3 -10 -14 0 -12 -4 -21 -9
-21 -5 0 -9 -10 -8 -22 0 -13 -3 -41 -7 -63 l-7 -40 20 49 c11 27 18 53 15 57
-3 5 0 17 6 26 11 17 11 17 6 1 -6 -20 3 -50 13 -44 3 2 7 -11 8 -30 1 -19 -3
-32 -8 -29 -5 4 -9 18 -9 33 0 21 -2 24 -10 12 -5 -8 -10 -27 -10 -41 0 -14
-3 -28 -6 -32 -3 -3 -5 -78 -4 -167 0 -106 -3 -167 -10 -175 -7 -9 -9 -31 -4
-62 5 -36 9 -43 14 -28 5 14 8 7 11 -27 2 -25 1 -44 -3 -41 -21 12 7 -45 31
-65 13 -11 13 -12 1 -6 -10 5 -9 0 4 -14 22 -25 28 -28 20 -9 -4 12 10 14 45
8 3 -1 -3 -7 -14 -14 -12 -9 -14 -16 -7 -21 6 -4 18 5 26 21 14 26 15 27 16 6
0 -13 -4 -23 -10 -23 -5 0 -10 -5 -10 -11 0 -6 7 -9 15 -6 8 4 17 1 21 -4 3
-6 15 -9 25 -6 11 3 17 2 14 -2 -2 -5 22 -9 55 -10 32 -1 61 3 65 9 3 5 11 10
16 10 6 0 7 -4 4 -10 -9 -15 7 -12 31 5 12 8 25 11 29 7 5 -4 5 -1 1 6 -6 10
-2 13 15 10 20 -2 24 1 22 22 -2 22 -1 23 10 9 11 -14 14 -14 33 5 44 44 75
108 34 71 -11 -10 -17 -23 -13 -29 4 -6 -3 -2 -15 8 -12 11 -20 22 -17 25 4 3
9 0 13 -6 5 -8 16 -1 34 21 22 27 28 47 32 105 l5 71 -84 0 c-57 0 -85 -4 -88
-12 -3 -7 -6 -4 -7 7 l-1 20 -9 -20 c-5 -11 -9 -14 -9 -7 -1 6 -5 12 -11 12
-6 0 -10 -26 -10 -58 0 -33 -5 -63 -12 -70 -10 -10 -10 -15 2 -22 13 -8 12
-12 -7 -25 -18 -12 -21 -22 -16 -45 5 -27 3 -30 -21 -30 -15 0 -34 7 -42 15
-13 12 -13 15 -2 15 8 0 19 -5 26 -12 9 -9 15 -9 24 0 9 9 7 12 -10 12 -12 0
-22 5 -22 11 0 6 -6 9 -14 6 -11 -5 -14 44 -15 293 -1 165 1 314 4 333 6 29
10 33 41 35 28 2 36 -2 44 -20 8 -20 15 -11 11 15 0 4 4 7 9 7 6 0 10 -8 11
-17 0 -16 2 -15 10 2 7 16 8 14 4 -9 -5 -23 -3 -27 9 -23 10 4 16 1 16 -8 0
-21 -27 -19 -39 3 -12 20 -12 23 -14 -100 -1 -53 1 -94 6 -91 4 2 7 0 7 -6 0
-5 -6 -11 -12 -14 -7 -2 -1 -4 14 -3 29 1 37 11 16 19 -7 2 30 4 82 4 90 -1
91 -1 18 -4 -105 -5 -100 -23 6 -23 l85 0 -5 97 c-2 53 -8 101 -14 107 -14 14
-13 29 2 20 8 -5 9 -2 4 12 -5 10 -9 25 -9 32 0 16 -19 10 -25 -8 -3 -7 0 -10
7 -6 6 4 11 1 11 -8 0 -9 -5 -16 -10 -16 -6 0 -15 -10 -20 -22 -6 -17 -9 -18
-9 -6 -1 9 4 20 9 23 8 5 7 11 -1 21 -9 11 -7 18 10 31 l21 18 -41 39 c-23 22
-39 34 -35 28 5 -8 2 -10 -8 -6 -9 3 -13 11 -9 18 4 6 -1 5 -10 -3 -9 -7 -17
-10 -17 -6 0 4 -6 3 -13 -3 -8 -7 -19 -6 -37 3 -30 17 -43 19 -35 5 3 -5 1
-10 -4 -10 -6 0 -11 9 -11 20 0 18 3 18 28 8 15 -7 33 -16 40 -21 8 -6 12 -5
12 2 0 6 8 11 17 11 24 0 12 8 -22 15 -65 14 -190 14 -215 0z m47 -1 c-3 -3
-12 -4 -19 -1 -8 3 -5 6 6 6 11 1 17 -2 13 -5z m66 -11 c-7 -2 -19 -2 -25 0
-7 3 -2 5 12 5 14 0 19 -2 13 -5z m-113 -23 c-8 -5 -17 -7 -19 -4 -3 3 1 9 9
14 8 5 17 7 19 4 3 -3 -1 -9 -9 -14z m74 11 c3 -4 3 -11 0 -14 -8 -8 -34 3
-34 14 0 11 27 12 34 0z m51 -11 c-3 -5 -10 -10 -16 -10 -5 0 -9 5 -9 10 0 6
7 10 16 10 8 0 12 -4 9 -10z m213 -66 c2 -1 -5 -7 -15 -12 -16 -9 -19 -7 -19
13 0 20 3 22 16 12 8 -6 17 -12 18 -13z m-121 -46 c-3 -8 -6 -5 -6 6 -1 11 2
17 5 13 3 -3 4 -12 1 -19z m90 -25 c-3 -10 -5 -4 -5 12 0 17 2 24 5 18 2 -7 2
-21 0 -30z m-427 -285 c0 -101 -4 -178 -8 -172 -7 13 -4 354 3 354 3 0 5 -82
5 -182z m-23 -210 c-3 -7 -5 -2 -5 12 0 14 2 19 5 13 2 -7 2 -19 0 -25z m28
-18 c-4 -12 -9 -19 -12 -17 -3 3 -2 15 2 27 4 12 9 19 12 17 3 -3 2 -15 -2
-27z m328 -38 c4 -21 3 -31 -3 -27 -6 3 -10 20 -10 37 0 38 5 34 13 -10z m151
22 c3 -8 2 -12 -4 -9 -6 3 -10 10 -10 16 0 14 7 11 14 -7z m-177 -26 c-3 -8
-6 -5 -6 6 -1 11 2 17 5 13 3 -3 4 -12 1 -19z m-287 -8 c0 -5 -4 -10 -10 -10
-5 0 -10 5 -10 10 0 6 5 10 10 10 6 0 10 -4 10 -10z m427 -4 c0 -8 -6 -12 -15
-9 -11 5 -11 7 0 14 7 5 13 9 14 9 0 0 1 -6 1 -14z m-428 -68 c1 -5 -3 -8 -9
-8 -5 0 -10 12 -9 28 0 24 1 25 9 7 5 -11 9 -23 9 -27z m420 -29 c-16 -10 -23
-4 -14 10 3 6 11 8 17 5 6 -4 5 -9 -3 -15z m-273 -19 c8 0 14 -4 14 -8 0 -5
-15 -7 -32 -6 -18 2 -24 1 -13 -2 25 -7 44 -24 26 -24 -7 0 -21 5 -31 10 -22
12 -15 44 7 36 8 -3 21 -6 29 -6z m164 0 c-13 -8 -13 -10 2 -10 9 0 18 6 21
13 2 6 7 9 11 5 9 -7 -24 -48 -39 -48 -5 0 -3 5 5 11 12 8 8 9 -14 6 -17 -3
-36 -3 -43 0 -23 9 -14 22 20 26 17 2 37 4 42 5 6 1 3 -3 -5 -8z"/>
<path d="M365 1441 c-3 -6 -16 -11 -28 -12 -12 0 -16 -3 -9 -6 6 -2 12 -9 12
-14 0 -6 -4 -8 -9 -4 -5 3 -13 0 -17 -6 -4 -7 -3 -9 3 -6 6 4 13 1 16 -7 9
-23 -5 -27 -26 -9 -11 10 -17 12 -13 6 5 -9 -1 -12 -21 -9 -15 2 -20 1 -10 -1
11 -3 16 -10 13 -19 -19 -45 -19 -49 -3 -29 14 17 16 18 17 3 0 -11 19 3 54
40 30 31 55 62 56 67 2 14 -27 18 -35 6z m8 -31 c-30 -32 -38 -38 -27 -17 13
22 37 47 46 47 6 0 -3 -13 -19 -30z m-58 -60 c-3 -5 -11 -10 -16 -10 -6 0 -7
5 -4 10 3 6 11 10 16 10 6 0 7 -4 4 -10z"/>
<path d="M1900 1430 c0 -10 13 -14 40 -11 12 1 11 -2 -3 -13 -16 -12 -16 -14
-1 -20 24 -9 27 -8 20 10 -5 12 -2 15 11 9 14 -5 13 -1 -4 14 -23 22 -63 29
-63 11z"/>
<path d="M1840 1410 c0 -5 9 -10 21 -10 11 0 17 5 14 10 -3 6 -13 10 -21 10
-8 0 -14 -4 -14 -10z"/>
<path d="M147 1380 c-3 -11 -1 -20 4 -20 5 0 9 9 9 20 0 11 -2 20 -4 20 -2 0
-6 -9 -9 -20z"/>
<path d="M258 1393 c7 -3 16 -2 19 1 4 3 -2 6 -13 5 -11 0 -14 -3 -6 -6z"/>
<path d="M1763 1384 c0 -7 5 -10 10 -7 6 4 8 -1 4 -11 -5 -13 0 -18 24 -23 27
-5 30 -9 27 -34 -3 -15 -1 -26 4 -23 11 7 7 74 -6 81 -5 3 -6 1 -2 -5 9 -16
-7 -15 -22 0 -7 7 -8 16 -3 22 6 7 2 11 -13 12 -13 1 -23 -4 -23 -12z"/>
<path d="M122 1340 c0 -14 2 -19 5 -12 2 6 2 18 0 25 -3 6 -5 1 -5 -13z"/>
<path d="M1980 1353 c0 -5 5 -15 10 -23 8 -12 10 -11 10 8 0 12 -4 22 -10 22
-5 0 -10 -3 -10 -7z"/>
<path d="M1920 1335 c0 -8 7 -15 16 -15 14 0 14 3 4 15 -7 8 -14 15 -16 15 -2
0 -4 -7 -4 -15z"/>
<path d="M140 1329 c0 -5 5 -7 10 -4 6 3 10 8 10 11 0 2 -4 4 -10 4 -5 0 -10
-5 -10 -11z"/>
<path d="M257 1282 c-10 -10 -17 -22 -17 -27 0 -4 9 2 20 15 11 13 20 25 20
27 0 7 -8 2 -23 -15z"/>
<path d="M1820 1260 c0 -5 5 -10 10 -10 6 0 10 5 10 10 0 6 -4 10 -10 10 -5 0
-10 -4 -10 -10z"/>
<path d="M284 955 c0 -159 2 -223 3 -142 2 82 2 212 0 290 -1 78 -3 12 -3
-148z"/>
<path d="M1130 1131 c0 -6 5 -13 10 -16 6 -3 10 1 10 9 0 9 -4 16 -10 16 -5 0
-10 -4 -10 -9z"/>
<path d="M820 889 c0 -5 5 -7 10 -4 6 3 10 8 10 11 0 2 -4 4 -10 4 -5 0 -10
-5 -10 -11z"/>
<path d="M847 886 c-4 -9 22 -13 97 -15 88 -2 103 0 103 14 0 13 -15 16 -98
14 -66 -1 -99 -5 -102 -13z"/>
<path d="M245 670 c4 -6 11 -8 16 -5 14 9 11 15 -7 15 -8 0 -12 -5 -9 -10z"/>
<path d="M1814 663 c-11 -11 -13 -18 -5 -21 16 -5 14 -22 -4 -22 -8 0 -15 5
-15 12 0 6 -2 9 -5 6 -11 -11 6 -33 28 -34 19 -1 22 3 22 37 0 22 -1 39 -2 39
-1 0 -9 -8 -19 -17z"/>
<path d="M1156 655 c-3 -8 -1 -15 4 -15 13 0 22 18 11 24 -5 3 -11 -1 -15 -9z"/>
<path d="M270 650 c0 -14 66 -80 73 -74 3 3 8 1 11 -5 4 -5 -3 -13 -14 -16
-12 -4 -20 -11 -18 -17 2 -5 8 -8 13 -6 6 2 9 6 7 11 -4 12 10 8 30 -9 16 -16
18 -15 24 0 5 13 9 14 20 5 15 -12 9 -33 -7 -24 -5 4 -9 2 -9 -4 0 -5 5 -13
10 -16 7 -4 7 -12 0 -25 -12 -22 -1 -33 20 -20 8 5 23 2 39 -7 l26 -15 -25 21
c-14 12 -31 26 -37 31 -7 6 -13 16 -13 22 0 6 9 1 19 -11 12 -14 25 -20 32
-15 7 4 9 3 6 -3 -4 -6 3 -13 15 -16 15 -4 1 14 -42 58 -35 35 -68 63 -74 62
-6 -1 -10 4 -8 11 1 8 -1 11 -5 9 -5 -3 -19 -1 -32 4 -19 7 -21 12 -12 23 9
11 9 16 -1 22 -20 13 -48 15 -48 4z m45 -21 c-4 -5 -12 -9 -18 -8 -9 0 -8 2 1
6 6 2 9 10 6 15 -4 7 -2 8 5 4 6 -4 9 -12 6 -17z m77 -81 c-6 -6 -16 -7 -22
-3 -9 6 -9 9 1 16 17 10 34 0 21 -13z m63 -48 c10 -11 16 -20 13 -20 -3 0 -13
9 -23 20 -10 11 -16 20 -13 20 3 0 13 -9 23 -20z"/>
<path d="M250 620 c-9 -6 -10 -10 -3 -10 6 0 15 5 18 10 8 12 4 12 -15 0z"/>
<path d="M1725 578 c-16 -17 -23 -27 -15 -22 8 4 21 9 29 9 8 0 15 10 16 23 1
12 1 22 1 22 -1 0 -14 -15 -31 -32z"/>
<path d="M143 584 c0 -7 5 -12 11 -11 6 1 10 -3 9 -9 -1 -7 5 -11 15 -10 10 0
17 -6 17 -16 0 -10 6 -23 13 -30 8 -7 13 -8 12 -3 -5 22 1 27 15 15 10 -9 12
-16 5 -24 -6 -9 7 -28 46 -67 30 -30 58 -53 62 -52 4 0 6 -3 5 -7 -1 -4 8 -16
20 -26 22 -19 22 -19 5 1 -11 13 -14 26 -9 34 7 11 10 9 16 -8 3 -11 11 -21
16 -21 6 0 7 -4 4 -10 -3 -5 0 -7 8 -4 12 4 10 10 -9 29 -13 13 -21 30 -18 38
3 8 1 18 -5 22 -7 3 -11 -2 -11 -14 0 -25 -41 -25 -48 1 -2 10 -9 15 -16 11
-6 -4 -5 1 2 10 8 9 10 22 6 29 -12 19 -12 48 -1 48 6 0 8 3 5 6 -4 3 -15 1
-26 -5 -16 -8 -25 -6 -46 14 -16 14 -23 30 -20 39 7 17 -3 23 -52 29 -21 3
-31 1 -31 -9z m67 -20 c0 -8 -4 -12 -10 -9 -5 3 -10 10 -10 16 0 5 5 9 10 9 6
0 10 -7 10 -16z m74 -80 c18 -17 20 -30 7 -38 -11 -7 -53 38 -44 47 10 11 20
8 37 -9z"/>
<path d="M265 470 c10 -11 20 -18 23 -16 5 6 -23 36 -34 36 -4 0 1 -9 11 -20z"/>
<path d="M1936 584 c-9 -24 -7 -28 9 -14 17 14 20 30 6 30 -5 0 -12 -7 -15
-16z"/>
<path d="M1720 535 c-14 -8 -20 -14 -14 -15 5 0 19 7 30 15 24 18 16 19 -16 0z"/>
<path d="M1915 520 c-4 -6 -10 -8 -14 -6 -4 3 -8 -1 -8 -9 0 -13 4 -12 19 2
18 16 22 23 14 23 -3 0 -8 -5 -11 -10z"/>
<path d="M1848 513 c6 -2 12 -11 12 -19 0 -9 -4 -12 -10 -9 -6 3 -7 -1 -4 -9
3 -9 11 -16 17 -16 6 0 7 3 4 7 -4 3 -2 12 4 19 13 16 3 34 -19 33 -11 0 -12
-3 -4 -6z"/>
<path d="M1665 490 c3 -5 8 -10 11 -10 2 0 4 5 4 10 0 6 -5 10 -11 10 -5 0 -7
-4 -4 -10z"/>
<path d="M1620 464 c0 -9 5 -12 11 -8 6 3 15 0 20 -7 6 -11 11 -11 21 -1 9 9
8 12 -6 12 -9 0 -15 4 -12 8 2 4 -4 9 -15 9 -11 1 -19 -5 -19 -13z"/>
<path d="M1586 438 c-9 -12 -16 -29 -16 -36 0 -8 -6 -12 -15 -8 -10 4 -15 -1
-15 -16 0 -17 3 -19 12 -10 8 8 15 8 24 1 8 -7 14 -7 19 1 4 6 3 9 -2 8 -8 -3
-13 5 -13 23 0 5 5 7 12 3 7 -5 9 -2 5 8 -3 9 0 21 6 27 6 6 8 13 5 16 -3 4
-13 -4 -22 -17z"/>
<path d="M330 425 c7 -8 17 -15 22 -15 6 0 5 7 -2 15 -7 8 -17 15 -22 15 -6 0
-5 -7 2 -15z"/>
<path d="M530 425 c9 -11 9 -15 1 -15 -7 0 -9 -5 -5 -11 4 -8 9 -7 15 2 5 8 9
12 10 9 0 -3 2 -13 4 -23 3 -14 -1 -17 -13 -12 -13 5 -14 4 -5 -6 9 -9 16 -9
26 -1 8 7 18 9 23 5 5 -4 -7 9 -25 30 -34 36 -56 52 -31 22z"/>
<path d="M1764 407 c4 -18 1 -36 -6 -46 -12 -14 -11 -14 5 -2 13 11 16 22 12
45 -3 17 -3 26 2 21 10 -14 35 -13 40 1 2 6 -10 11 -28 11 -29 0 -30 -2 -25
-30z"/>
<path d="M494 400 c0 -13 7 -25 14 -28 16 -5 15 10 -2 33 -13 18 -13 18 -12
-5z"/>
<path d="M464 352 c4 -7 2 -12 -3 -12 -6 0 -11 -7 -11 -16 0 -14 -3 -14 -15
-4 -11 9 -15 9 -15 1 0 -7 -5 -9 -12 -5 -6 4 -8 3 -5 -3 4 -6 18 -9 31 -8 24
3 38 -13 32 -37 -1 -7 -1 -10 1 -5 3 4 9 7 14 7 6 0 7 -4 4 -10 -3 -6 1 -7 10
-4 13 5 11 10 -10 30 -28 26 -30 35 -14 51 8 8 7 13 -2 18 -8 5 -10 4 -5 -3z"/>
<path d="M570 350 c-9 -6 -10 -10 -3 -10 6 0 15 5 18 10 8 12 4 12 -15 0z"/>
<path d="M1504 352 c4 -6 -4 -16 -16 -23 -38 -20 -50 -36 -32 -43 9 -3 17 1
21 12 4 9 16 24 27 33 15 12 16 18 6 24 -8 5 -11 4 -6 -3z"/>
<path d="M1695 350 c3 -6 1 -10 -5 -10 -5 0 -9 -13 -8 -29 1 -16 6 -28 10 -25
4 3 4 12 1 21 -4 9 1 21 11 28 15 11 15 13 1 19 -9 3 -13 2 -10 -4z"/>
<path d="M583 328 c-6 -7 -13 -20 -16 -29 -4 -13 -1 -16 14 -12 14 4 18 11 13
25 -5 17 -4 18 15 6 12 -7 17 -14 12 -16 -5 -2 1 -14 13 -27 17 -19 22 -21 29
-9 5 8 13 12 19 8 5 -4 -2 -14 -17 -24 -28 -18 -21 -33 17 -35 13 -1 15 2 7
11 -12 15 -3 37 12 28 5 -3 7 -9 4 -13 -2 -5 2 -16 9 -26 12 -16 13 -16 19 -1
4 10 1 16 -9 16 -8 0 -13 4 -10 8 3 5 -15 28 -39 52 -25 24 -45 40 -45 35 0
-5 -5 -4 -12 3 -15 15 -23 15 -35 0z m81 -50 c-8 -12 -27 6 -30 28 -2 14 0 14
17 -1 10 -10 16 -22 13 -27z"/>
<path d="M1700 320 c0 -5 5 -10 11 -10 5 0 7 5 4 10 -3 6 -8 10 -11 10 -2 0
-4 -4 -4 -10z"/>
<path d="M1502 308 c-16 -16 -15 -25 1 -25 7 0 13 9 13 19 0 21 1 21 -14 6z"/>
<path d="M1415 270 c-3 -5 -1 -10 4 -10 6 0 11 5 11 10 0 6 -2 10 -4 10 -3 0
-8 -4 -11 -10z"/>
<path d="M1600 269 c0 -5 5 -7 10 -4 6 3 10 8 10 11 0 2 -4 4 -10 4 -5 0 -10
-5 -10 -11z"/>
<path d="M1650 263 c0 -15 -2 -16 -10 -3 -6 9 -10 10 -10 3 0 -19 17 -24 29
-9 8 10 9 16 1 21 -5 3 -10 -2 -10 -12z"/>
<path d="M534 255 c-4 -8 -14 -15 -23 -15 -13 0 -13 -2 -2 -9 7 -5 11 -13 7
-19 -7 -12 20 -10 31 3 4 4 2 5 -4 1 -19 -10 -16 14 4 36 10 11 12 18 4 18 -6
0 -14 -7 -17 -15z"/>
<path d="M1396 241 c-8 -12 3 -41 15 -41 11 0 30 36 22 44 -9 9 -31 7 -37 -3z
m28 -16 c-4 -8 -11 -12 -16 -9 -6 4 -5 10 3 15 19 12 19 11 13 -6z"/>
<path d="M1607 243 c-10 -9 -9 -23 1 -23 5 0 9 7 9 15 0 17 -1 18 -10 8z"/>
<path d="M765 221 c3 -6 125 -10 297 -11 160 0 294 -3 299 -5 4 -3 10 -1 14 5
4 7 -89 10 -282 11 -158 0 -298 2 -311 5 -13 2 -21 0 -17 -5z"/>
<path d="M560 184 c0 -8 5 -12 10 -9 6 4 8 11 5 16 -9 14 -15 11 -15 -7z"/>
<path d="M1546 174 c-14 -15 -26 -32 -26 -38 0 -6 8 -1 18 11 9 12 26 29 37
37 11 9 15 16 9 16 -6 0 -23 -12 -38 -26z"/>
<path d="M604 179 c-5 -9 -2 -10 9 -6 9 3 18 2 21 -4 2 -5 3 -4 2 3 -3 17 -23
21 -32 7z"/>
<path d="M585 150 c1 -12 9 -28 18 -37 16 -16 17 -16 17 0 0 10 5 15 10 12 6
-3 10 -2 10 4 0 17 -18 21 -24 5 -3 -8 -11 -12 -17 -8 -8 5 -8 8 0 14 9 5 8
10 -2 18 -11 9 -13 8 -12 -8z"/>
<path d="M646 105 c-11 -8 -14 -15 -7 -15 7 0 10 -4 7 -8 -2 -4 3 -8 12 -8 9
-1 25 -4 35 -9 10 -4 17 -3 17 5 0 6 -4 9 -9 5 -5 -3 -12 -1 -16 5 -3 6 4 15
17 20 18 8 18 10 3 6 -11 -2 -29 -7 -40 -11 l-20 -8 20 16 c25 20 7 22 -19 2z"/>
<path d="M1467 103 c5 -12 2 -15 -10 -10 -11 4 -15 0 -14 -13 1 -17 3 -18 17
-5 9 8 22 15 28 15 17 0 15 17 -4 24 -23 9 -24 8 -17 -11z"/>
</g>
</svg>
